<mxfile host="app.diagrams.net" modified="2023-05-28T15:46:52.332Z" agent="Mozilla/5.0 (X11; Ubuntu; Linux x86_64; rv:109.0) Gecko/20100101 Firefox/113.0" etag="IVA5JmfXwYIvJD1HigEl" version="21.3.3" type="google">
  <diagram id="C5RBs43oDa-KdzZeNtuy" name="Page-1">
    <mxGraphModel grid="1" page="1" gridSize="10" guides="1" tooltips="1" connect="1" arrows="1" fold="1" pageScale="1" pageWidth="1654" pageHeight="1169" math="0" shadow="0">
      <root>
        <mxCell id="WIyWlLk6GJQsqaUBKTNV-0" />
        <mxCell id="WIyWlLk6GJQsqaUBKTNV-1" parent="WIyWlLk6GJQsqaUBKTNV-0" />
        <mxCell id="Gbv1jejS2D5YbB3k_reu-0" value="TIMELINE" style="rounded=0;whiteSpace=wrap;html=1;labelBorderColor=none;strokeWidth=3;fontSize=15;" vertex="1" parent="WIyWlLk6GJQsqaUBKTNV-1">
          <mxGeometry x="-3025.88" y="50" width="215.75" height="30" as="geometry" />
        </mxCell>
        <mxCell id="Gbv1jejS2D5YbB3k_reu-72" value="MiAM Robotics - MotionController::computeAvoidanceTrajectory" style="shape=table;startSize=30;container=1;collapsible=0;childLayout=tableLayout;fixedRows=1;rowLines=0;fontStyle=0;strokeColor=default;fontSize=16;" vertex="1" parent="WIyWlLk6GJQsqaUBKTNV-1">
          <mxGeometry x="-2310" y="970" width="554" height="120" as="geometry" />
        </mxCell>
        <mxCell id="Gbv1jejS2D5YbB3k_reu-76" value="" style="shape=tableRow;horizontal=0;startSize=0;swimlaneHead=0;swimlaneBody=0;top=0;left=0;bottom=0;right=0;collapsible=0;dropTarget=0;fillColor=none;points=[[0,0.5],[1,0.5]];portConstraint=eastwest;strokeColor=inherit;fontSize=16;" vertex="1" parent="Gbv1jejS2D5YbB3k_reu-72">
          <mxGeometry y="30" width="554" height="30" as="geometry" />
        </mxCell>
        <mxCell id="Gbv1jejS2D5YbB3k_reu-77" value="Author" style="shape=partialRectangle;html=1;whiteSpace=wrap;connectable=0;fillColor=none;top=0;left=0;bottom=0;right=0;overflow=hidden;strokeColor=inherit;fontSize=16;" vertex="1" parent="Gbv1jejS2D5YbB3k_reu-76">
          <mxGeometry width="123" height="30" as="geometry">
            <mxRectangle width="123" height="30" as="alternateBounds" />
          </mxGeometry>
        </mxCell>
        <mxCell id="Gbv1jejS2D5YbB3k_reu-78" value="Quentin CHAN-WAI-NAM" style="shape=partialRectangle;html=1;whiteSpace=wrap;connectable=0;fillColor=none;top=0;left=0;bottom=0;right=0;align=left;spacingLeft=6;overflow=hidden;strokeColor=inherit;fontSize=16;" vertex="1" parent="Gbv1jejS2D5YbB3k_reu-76">
          <mxGeometry x="123" width="431" height="30" as="geometry">
            <mxRectangle width="431" height="30" as="alternateBounds" />
          </mxGeometry>
        </mxCell>
        <mxCell id="Gbv1jejS2D5YbB3k_reu-79" value="" style="shape=tableRow;horizontal=0;startSize=0;swimlaneHead=0;swimlaneBody=0;top=0;left=0;bottom=0;right=0;collapsible=0;dropTarget=0;fillColor=none;points=[[0,0.5],[1,0.5]];portConstraint=eastwest;strokeColor=inherit;fontSize=16;" vertex="1" parent="Gbv1jejS2D5YbB3k_reu-72">
          <mxGeometry y="60" width="554" height="30" as="geometry" />
        </mxCell>
        <mxCell id="Gbv1jejS2D5YbB3k_reu-80" value="Date" style="shape=partialRectangle;html=1;whiteSpace=wrap;connectable=0;fillColor=none;top=0;left=0;bottom=0;right=0;overflow=hidden;strokeColor=inherit;fontSize=16;" vertex="1" parent="Gbv1jejS2D5YbB3k_reu-79">
          <mxGeometry width="123" height="30" as="geometry">
            <mxRectangle width="123" height="30" as="alternateBounds" />
          </mxGeometry>
        </mxCell>
        <mxCell id="Gbv1jejS2D5YbB3k_reu-81" value="&lt;div&gt;2023/05/28&lt;/div&gt;" style="shape=partialRectangle;html=1;whiteSpace=wrap;connectable=0;fillColor=none;top=0;left=0;bottom=0;right=0;align=left;spacingLeft=6;overflow=hidden;strokeColor=inherit;fontSize=16;" vertex="1" parent="Gbv1jejS2D5YbB3k_reu-79">
          <mxGeometry x="123" width="431" height="30" as="geometry">
            <mxRectangle width="431" height="30" as="alternateBounds" />
          </mxGeometry>
        </mxCell>
        <mxCell id="Gbv1jejS2D5YbB3k_reu-84" style="shape=tableRow;horizontal=0;startSize=0;swimlaneHead=0;swimlaneBody=0;top=0;left=0;bottom=0;right=0;collapsible=0;dropTarget=0;fillColor=none;points=[[0,0.5],[1,0.5]];portConstraint=eastwest;strokeColor=inherit;fontSize=16;" vertex="1" parent="Gbv1jejS2D5YbB3k_reu-72">
          <mxGeometry y="90" width="554" height="30" as="geometry" />
        </mxCell>
        <mxCell id="Gbv1jejS2D5YbB3k_reu-85" value="Version" style="shape=partialRectangle;html=1;whiteSpace=wrap;connectable=0;fillColor=none;top=0;left=0;bottom=0;right=0;overflow=hidden;strokeColor=inherit;fontSize=16;" vertex="1" parent="Gbv1jejS2D5YbB3k_reu-84">
          <mxGeometry width="123" height="30" as="geometry">
            <mxRectangle width="123" height="30" as="alternateBounds" />
          </mxGeometry>
        </mxCell>
        <mxCell id="Gbv1jejS2D5YbB3k_reu-86" value="1" style="shape=partialRectangle;html=1;whiteSpace=wrap;connectable=0;fillColor=none;top=0;left=0;bottom=0;right=0;align=left;spacingLeft=6;overflow=hidden;strokeColor=inherit;fontSize=16;" vertex="1" parent="Gbv1jejS2D5YbB3k_reu-84">
          <mxGeometry x="123" width="431" height="30" as="geometry">
            <mxRectangle width="431" height="30" as="alternateBounds" />
          </mxGeometry>
        </mxCell>
        <mxCell id="au-9TqecU8oirwRdrZ1P-4" style="edgeStyle=orthogonalEdgeStyle;rounded=0;orthogonalLoop=1;jettySize=auto;html=1;exitX=0.5;exitY=1;exitDx=0;exitDy=0;entryX=0.5;entryY=0;entryDx=0;entryDy=0;" edge="1" parent="WIyWlLk6GJQsqaUBKTNV-1" target="au-9TqecU8oirwRdrZ1P-3">
          <mxGeometry relative="1" as="geometry">
            <mxPoint x="-3115" y="270.5" as="sourcePoint" />
          </mxGeometry>
        </mxCell>
        <mxCell id="au-9TqecU8oirwRdrZ1P-1" value="&lt;div&gt;MotionController changes state to PLAN AVOIDANCE&lt;/div&gt;" style="text;html=1;strokeColor=none;fillColor=none;align=center;verticalAlign=middle;whiteSpace=wrap;rounded=0;" vertex="1" parent="WIyWlLk6GJQsqaUBKTNV-1">
          <mxGeometry x="-3275" y="415" width="110" height="30" as="geometry" />
        </mxCell>
        <mxCell id="au-9TqecU8oirwRdrZ1P-2" value="Avoidance is scheduled by setting a flag" style="text;html=1;strokeColor=none;fillColor=none;align=center;verticalAlign=middle;whiteSpace=wrap;rounded=0;" vertex="1" parent="WIyWlLk6GJQsqaUBKTNV-1">
          <mxGeometry x="-3275" y="303" width="110" height="30" as="geometry" />
        </mxCell>
        <mxCell id="au-9TqecU8oirwRdrZ1P-17" style="edgeStyle=orthogonalEdgeStyle;rounded=0;orthogonalLoop=1;jettySize=auto;html=1;exitX=0.5;exitY=1;exitDx=0;exitDy=0;entryX=0.5;entryY=0;entryDx=0;entryDy=0;" edge="1" parent="WIyWlLk6GJQsqaUBKTNV-1" source="au-9TqecU8oirwRdrZ1P-3" target="au-9TqecU8oirwRdrZ1P-23">
          <mxGeometry relative="1" as="geometry">
            <mxPoint x="-3070" y="400" as="targetPoint" />
          </mxGeometry>
        </mxCell>
        <mxCell id="au-9TqecU8oirwRdrZ1P-3" value="&lt;div&gt;avoidanceComputationScheduled_ = true&lt;/div&gt;" style="shape=hexagon;perimeter=hexagonPerimeter2;whiteSpace=wrap;html=1;fixedSize=1;" vertex="1" parent="WIyWlLk6GJQsqaUBKTNV-1">
          <mxGeometry x="-3240" y="360" width="250" height="29.5" as="geometry" />
        </mxCell>
        <mxCell id="au-9TqecU8oirwRdrZ1P-5" value="Low level loop thread" style="text;html=1;align=center;verticalAlign=middle;resizable=0;points=[];autosize=1;strokeColor=none;fillColor=none;fontSize=14;" vertex="1" parent="WIyWlLk6GJQsqaUBKTNV-1">
          <mxGeometry x="-3190" y="120" width="150" height="30" as="geometry" />
        </mxCell>
        <mxCell id="au-9TqecU8oirwRdrZ1P-6" value="Avoidance computation thread" style="text;html=1;align=center;verticalAlign=middle;resizable=0;points=[];autosize=1;strokeColor=none;fillColor=none;fontSize=14;" vertex="1" parent="WIyWlLk6GJQsqaUBKTNV-1">
          <mxGeometry x="-2790" y="120" width="210" height="30" as="geometry" />
        </mxCell>
        <mxCell id="au-9TqecU8oirwRdrZ1P-7" value="" style="endArrow=none;dashed=1;html=1;strokeWidth=2;rounded=0;" edge="1" parent="WIyWlLk6GJQsqaUBKTNV-1">
          <mxGeometry width="50" height="50" relative="1" as="geometry">
            <mxPoint x="-2910" y="854" as="sourcePoint" />
            <mxPoint x="-2910" y="170" as="targetPoint" />
          </mxGeometry>
        </mxCell>
        <mxCell id="au-9TqecU8oirwRdrZ1P-10" value="&lt;div&gt;avoidanceComputationScheduled_ = true&lt;/div&gt;" style="edgeStyle=orthogonalEdgeStyle;rounded=0;orthogonalLoop=1;jettySize=auto;html=1;exitX=0.5;exitY=1;exitDx=0;exitDy=0;entryX=0.5;entryY=0;entryDx=0;entryDy=0;align=left;" edge="1" parent="WIyWlLk6GJQsqaUBKTNV-1" source="au-9TqecU8oirwRdrZ1P-9" target="au-9TqecU8oirwRdrZ1P-30">
          <mxGeometry x="-0.0476" y="10" relative="1" as="geometry">
            <mxPoint x="-2770" y="295" as="targetPoint" />
            <mxPoint as="offset" />
          </mxGeometry>
        </mxCell>
        <mxCell id="au-9TqecU8oirwRdrZ1P-9" value="WAITING" style="rhombus;whiteSpace=wrap;html=1;shadow=0;fontFamily=Helvetica;fontSize=12;align=center;strokeWidth=2;spacing=6;spacingTop=-4;" vertex="1" parent="WIyWlLk6GJQsqaUBKTNV-1">
          <mxGeometry x="-2820" y="152" width="100" height="80" as="geometry" />
        </mxCell>
        <mxCell id="au-9TqecU8oirwRdrZ1P-13" value="AVOIDANCE_OFF" style="edgeStyle=orthogonalEdgeStyle;rounded=0;orthogonalLoop=1;jettySize=auto;html=1;exitX=1;exitY=0.5;exitDx=0;exitDy=0;align=left;entryX=0;entryY=0.5;entryDx=0;entryDy=0;" edge="1" parent="WIyWlLk6GJQsqaUBKTNV-1" source="au-9TqecU8oirwRdrZ1P-30" target="au-9TqecU8oirwRdrZ1P-40">
          <mxGeometry x="-0.8182" y="13" relative="1" as="geometry">
            <mxPoint x="-2600" y="363" as="targetPoint" />
            <mxPoint x="-2720" y="368" as="sourcePoint" />
            <mxPoint as="offset" />
          </mxGeometry>
        </mxCell>
        <mxCell id="au-9TqecU8oirwRdrZ1P-25" value="AVOIDANCE_MPC" style="edgeStyle=orthogonalEdgeStyle;rounded=0;orthogonalLoop=1;jettySize=auto;html=1;exitX=0.5;exitY=1;exitDx=0;exitDy=0;align=left;entryX=0.5;entryY=0;entryDx=0;entryDy=0;" edge="1" parent="WIyWlLk6GJQsqaUBKTNV-1" source="au-9TqecU8oirwRdrZ1P-30" target="au-9TqecU8oirwRdrZ1P-28">
          <mxGeometry x="-0.1053" relative="1" as="geometry">
            <mxPoint x="-2770" y="401.5" as="targetPoint" />
            <mxPoint x="-2770" y="340" as="sourcePoint" />
            <mxPoint as="offset" />
          </mxGeometry>
        </mxCell>
        <mxCell id="au-9TqecU8oirwRdrZ1P-16" style="edgeStyle=orthogonalEdgeStyle;rounded=0;orthogonalLoop=1;jettySize=auto;html=1;exitX=0;exitY=0.5;exitDx=0;exitDy=0;entryX=1;entryY=0.5;entryDx=0;entryDy=0;" edge="1" parent="WIyWlLk6GJQsqaUBKTNV-1" source="au-9TqecU8oirwRdrZ1P-32" target="au-9TqecU8oirwRdrZ1P-9">
          <mxGeometry relative="1" as="geometry" />
        </mxCell>
        <mxCell id="au-9TqecU8oirwRdrZ1P-33" style="edgeStyle=orthogonalEdgeStyle;rounded=0;orthogonalLoop=1;jettySize=auto;html=1;exitX=0.25;exitY=0;exitDx=0;exitDy=0;entryX=0.5;entryY=1;entryDx=0;entryDy=0;" edge="1" parent="WIyWlLk6GJQsqaUBKTNV-1" source="au-9TqecU8oirwRdrZ1P-40" target="au-9TqecU8oirwRdrZ1P-32">
          <mxGeometry relative="1" as="geometry">
            <mxPoint x="-2440" y="398" as="sourcePoint" />
            <Array as="points">
              <mxPoint x="-2275" y="260" />
              <mxPoint x="-2351" y="260" />
            </Array>
          </mxGeometry>
        </mxCell>
        <mxCell id="au-9TqecU8oirwRdrZ1P-21" value="avoidanceComputationResult_ empty" style="edgeStyle=orthogonalEdgeStyle;rounded=0;orthogonalLoop=1;jettySize=auto;html=1;exitX=0;exitY=0.5;exitDx=0;exitDy=0;entryX=0.5;entryY=0;entryDx=0;entryDy=0;" edge="1" parent="WIyWlLk6GJQsqaUBKTNV-1" source="au-9TqecU8oirwRdrZ1P-45" target="au-9TqecU8oirwRdrZ1P-19">
          <mxGeometry x="0.6166" y="2" relative="1" as="geometry">
            <mxPoint x="-3165" y="574" as="sourcePoint" />
            <Array as="points">
              <mxPoint x="-3192" y="657" />
              <mxPoint x="-3192" y="732" />
            </Array>
            <mxPoint as="offset" />
          </mxGeometry>
        </mxCell>
        <mxCell id="au-9TqecU8oirwRdrZ1P-22" value="avoidanceComputationResult_ not empty" style="edgeStyle=orthogonalEdgeStyle;rounded=0;orthogonalLoop=1;jettySize=auto;html=1;exitX=1;exitY=0.5;exitDx=0;exitDy=0;entryX=0.5;entryY=0;entryDx=0;entryDy=0;" edge="1" parent="WIyWlLk6GJQsqaUBKTNV-1" source="au-9TqecU8oirwRdrZ1P-45" target="au-9TqecU8oirwRdrZ1P-20">
          <mxGeometry x="0.1053" y="-2" relative="1" as="geometry">
            <mxPoint x="-3065" y="574" as="sourcePoint" />
            <Array as="points">
              <mxPoint x="-3037" y="657" />
              <mxPoint x="-3037" y="732" />
            </Array>
            <mxPoint as="offset" />
          </mxGeometry>
        </mxCell>
        <mxCell id="au-9TqecU8oirwRdrZ1P-19" value="STOP" style="rhombus;whiteSpace=wrap;html=1;shadow=0;fontFamily=Helvetica;fontSize=12;align=center;strokeWidth=2;spacing=6;spacingTop=-4;" vertex="1" parent="WIyWlLk6GJQsqaUBKTNV-1">
          <mxGeometry x="-3242.5" y="777" width="100" height="80" as="geometry" />
        </mxCell>
        <mxCell id="au-9TqecU8oirwRdrZ1P-20" value="TRACK TRAJECTORY" style="rhombus;whiteSpace=wrap;html=1;shadow=0;fontFamily=Helvetica;fontSize=12;align=center;strokeWidth=2;spacing=6;spacingTop=-4;" vertex="1" parent="WIyWlLk6GJQsqaUBKTNV-1">
          <mxGeometry x="-3087.5" y="777" width="100" height="80" as="geometry" />
        </mxCell>
        <mxCell id="au-9TqecU8oirwRdrZ1P-46" value="avoidanceComputationScheduled_ = false" style="edgeStyle=orthogonalEdgeStyle;rounded=0;orthogonalLoop=1;jettySize=auto;html=1;exitX=0.5;exitY=1;exitDx=0;exitDy=0;entryX=0.5;entryY=0;entryDx=0;entryDy=0;" edge="1" parent="WIyWlLk6GJQsqaUBKTNV-1" source="au-9TqecU8oirwRdrZ1P-23" target="au-9TqecU8oirwRdrZ1P-45">
          <mxGeometry x="0.3571" relative="1" as="geometry">
            <mxPoint as="offset" />
          </mxGeometry>
        </mxCell>
        <mxCell id="au-9TqecU8oirwRdrZ1P-23" value="PLAN AVOIDANCE" style="rhombus;whiteSpace=wrap;html=1;shadow=0;fontFamily=Helvetica;fontSize=12;align=center;strokeWidth=2;spacing=6;spacingTop=-4;" vertex="1" parent="WIyWlLk6GJQsqaUBKTNV-1">
          <mxGeometry x="-3165" y="463" width="100" height="80" as="geometry" />
        </mxCell>
        <mxCell id="au-9TqecU8oirwRdrZ1P-43" value="Yes" style="edgeStyle=orthogonalEdgeStyle;rounded=0;orthogonalLoop=1;jettySize=auto;html=1;exitX=1;exitY=0.5;exitDx=0;exitDy=0;entryX=0;entryY=0.5;entryDx=0;entryDy=0;" edge="1" parent="WIyWlLk6GJQsqaUBKTNV-1" source="au-9TqecU8oirwRdrZ1P-28" target="au-9TqecU8oirwRdrZ1P-42">
          <mxGeometry x="-0.6364" y="11" relative="1" as="geometry">
            <mxPoint as="offset" />
          </mxGeometry>
        </mxCell>
        <mxCell id="au-9TqecU8oirwRdrZ1P-48" value="No" style="edgeStyle=orthogonalEdgeStyle;rounded=0;orthogonalLoop=1;jettySize=auto;html=1;exitX=0.5;exitY=1;exitDx=0;exitDy=0;entryX=0.5;entryY=0;entryDx=0;entryDy=0;" edge="1" parent="WIyWlLk6GJQsqaUBKTNV-1" source="au-9TqecU8oirwRdrZ1P-28" target="au-9TqecU8oirwRdrZ1P-49">
          <mxGeometry x="-0.0256" y="10" relative="1" as="geometry">
            <mxPoint x="-2770" y="462" as="targetPoint" />
            <mxPoint as="offset" />
          </mxGeometry>
        </mxCell>
        <mxCell id="au-9TqecU8oirwRdrZ1P-28" value="Target position less than 400 from current position ?" style="rounded=0;whiteSpace=wrap;html=1;" vertex="1" parent="WIyWlLk6GJQsqaUBKTNV-1">
          <mxGeometry x="-2830" y="363" width="120" height="60" as="geometry" />
        </mxCell>
        <mxCell id="au-9TqecU8oirwRdrZ1P-30" value="Check avoidance mode" style="rounded=0;whiteSpace=wrap;html=1;" vertex="1" parent="WIyWlLk6GJQsqaUBKTNV-1">
          <mxGeometry x="-2830" y="265" width="120" height="60" as="geometry" />
        </mxCell>
        <mxCell id="au-9TqecU8oirwRdrZ1P-32" value="&lt;div&gt;avoidanceComputationScheduled_ = false&lt;/div&gt;" style="shape=hexagon;perimeter=hexagonPerimeter2;whiteSpace=wrap;html=1;fixedSize=1;" vertex="1" parent="WIyWlLk6GJQsqaUBKTNV-1">
          <mxGeometry x="-2481" y="178.25" width="260" height="27.5" as="geometry" />
        </mxCell>
        <mxCell id="au-9TqecU8oirwRdrZ1P-40" value="&lt;div&gt;avoidanceComputationResult_ set to empty&lt;/div&gt;" style="rounded=0;whiteSpace=wrap;html=1;" vertex="1" parent="WIyWlLk6GJQsqaUBKTNV-1">
          <mxGeometry x="-2320" y="279" width="180" height="32" as="geometry" />
        </mxCell>
        <mxCell id="au-9TqecU8oirwRdrZ1P-44" style="edgeStyle=orthogonalEdgeStyle;rounded=0;orthogonalLoop=1;jettySize=auto;html=1;exitX=1;exitY=0.5;exitDx=0;exitDy=0;entryX=0.375;entryY=1;entryDx=0;entryDy=0;" edge="1" parent="WIyWlLk6GJQsqaUBKTNV-1" source="au-9TqecU8oirwRdrZ1P-42" target="au-9TqecU8oirwRdrZ1P-32">
          <mxGeometry relative="1" as="geometry" />
        </mxCell>
        <mxCell id="au-9TqecU8oirwRdrZ1P-42" value="avoidanceComputationResult_&amp;nbsp; set to a StraightLineToPoint followed by a PointTurn" style="rounded=0;whiteSpace=wrap;html=1;" vertex="1" parent="WIyWlLk6GJQsqaUBKTNV-1">
          <mxGeometry x="-2600" y="363" width="180" height="60" as="geometry" />
        </mxCell>
        <mxCell id="au-9TqecU8oirwRdrZ1P-45" value="Check for result" style="rounded=0;whiteSpace=wrap;html=1;" vertex="1" parent="WIyWlLk6GJQsqaUBKTNV-1">
          <mxGeometry x="-3175" y="627" width="120" height="60" as="geometry" />
        </mxCell>
        <mxCell id="au-9TqecU8oirwRdrZ1P-47" value="&lt;div&gt;MotionController waits for avoidance result&lt;br&gt;&lt;/div&gt;" style="text;html=1;strokeColor=none;fillColor=none;align=center;verticalAlign=middle;whiteSpace=wrap;rounded=0;" vertex="1" parent="WIyWlLk6GJQsqaUBKTNV-1">
          <mxGeometry x="-3275" y="530" width="110" height="30" as="geometry" />
        </mxCell>
        <mxCell id="au-9TqecU8oirwRdrZ1P-53" value="distance &amp;gt; 0" style="edgeStyle=orthogonalEdgeStyle;rounded=0;orthogonalLoop=1;jettySize=auto;html=1;exitX=0.5;exitY=1;exitDx=0;exitDy=0;entryX=0.5;entryY=0;entryDx=0;entryDy=0;align=left;" edge="1" parent="WIyWlLk6GJQsqaUBKTNV-1" source="au-9TqecU8oirwRdrZ1P-49" target="au-9TqecU8oirwRdrZ1P-54">
          <mxGeometry x="0.0811" relative="1" as="geometry">
            <mxPoint x="-2770.1034482758623" y="562" as="targetPoint" />
            <mxPoint as="offset" />
          </mxGeometry>
        </mxCell>
        <mxCell id="au-9TqecU8oirwRdrZ1P-59" value="distance &amp;lt; 0" style="edgeStyle=orthogonalEdgeStyle;rounded=0;orthogonalLoop=1;jettySize=auto;html=1;exitX=1;exitY=0.5;exitDx=0;exitDy=0;entryX=0.75;entryY=0;entryDx=0;entryDy=0;align=left;" edge="1" parent="WIyWlLk6GJQsqaUBKTNV-1" source="au-9TqecU8oirwRdrZ1P-49" target="au-9TqecU8oirwRdrZ1P-57">
          <mxGeometry x="-0.1303" relative="1" as="geometry">
            <Array as="points">
              <mxPoint x="-2690" y="492" />
              <mxPoint x="-2690" y="632" />
              <mxPoint x="-2740" y="632" />
            </Array>
            <mxPoint as="offset" />
          </mxGeometry>
        </mxCell>
        <mxCell id="au-9TqecU8oirwRdrZ1P-49" value="Obstacle near ? Then create some distance before avoiding" style="rounded=0;whiteSpace=wrap;html=1;" vertex="1" parent="WIyWlLk6GJQsqaUBKTNV-1">
          <mxGeometry x="-2830" y="462" width="120" height="60" as="geometry" />
        </mxCell>
        <mxCell id="au-9TqecU8oirwRdrZ1P-50" value="&lt;div&gt;Compute distance :&lt;/div&gt;&lt;div&gt;&lt;font face=&quot;Courier New&quot;&gt;min(0, x_max + margin - min distance to obstacle)&lt;/font&gt;&lt;br&gt;&lt;/div&gt;" style="text;html=1;align=left;verticalAlign=middle;resizable=0;points=[];autosize=1;strokeColor=none;fillColor=none;" vertex="1" parent="WIyWlLk6GJQsqaUBKTNV-1">
          <mxGeometry x="-2661.5" y="445" width="380" height="40" as="geometry" />
        </mxCell>
        <mxCell id="au-9TqecU8oirwRdrZ1P-51" value="&lt;div&gt;Typically&lt;/div&gt;&lt;div&gt;x_max = 430&lt;/div&gt;&lt;div&gt;margin = 150&lt;br&gt;&lt;/div&gt;" style="text;html=1;align=left;verticalAlign=middle;resizable=0;points=[];autosize=1;strokeColor=none;fillColor=none;" vertex="1" parent="WIyWlLk6GJQsqaUBKTNV-1">
          <mxGeometry x="-2661.5" y="485" width="90" height="60" as="geometry" />
        </mxCell>
        <mxCell id="au-9TqecU8oirwRdrZ1P-55" style="edgeStyle=orthogonalEdgeStyle;rounded=0;orthogonalLoop=1;jettySize=auto;html=1;exitX=0.5;exitY=1;exitDx=0;exitDy=0;" edge="1" parent="WIyWlLk6GJQsqaUBKTNV-1" source="au-9TqecU8oirwRdrZ1P-54">
          <mxGeometry relative="1" as="geometry">
            <mxPoint x="-2770.1034482758623" y="652" as="targetPoint" />
          </mxGeometry>
        </mxCell>
        <mxCell id="au-9TqecU8oirwRdrZ1P-54" value="Append a straight line to go backard or forward to avoidance traj" style="rounded=0;whiteSpace=wrap;html=1;" vertex="1" parent="WIyWlLk6GJQsqaUBKTNV-1">
          <mxGeometry x="-2830" y="559" width="120" height="60" as="geometry" />
        </mxCell>
        <mxCell id="au-9TqecU8oirwRdrZ1P-60" value="No path was found" style="edgeStyle=orthogonalEdgeStyle;rounded=0;orthogonalLoop=1;jettySize=auto;html=1;exitX=1;exitY=0.5;exitDx=0;exitDy=0;entryX=0.25;entryY=1;entryDx=0;entryDy=0;" edge="1" parent="WIyWlLk6GJQsqaUBKTNV-1" source="au-9TqecU8oirwRdrZ1P-57" target="au-9TqecU8oirwRdrZ1P-40">
          <mxGeometry x="-0.8492" y="10" relative="1" as="geometry">
            <mxPoint as="offset" />
          </mxGeometry>
        </mxCell>
        <mxCell id="au-9TqecU8oirwRdrZ1P-62" value="A geometric path was found" style="edgeStyle=orthogonalEdgeStyle;rounded=0;orthogonalLoop=1;jettySize=auto;html=1;exitX=0.5;exitY=1;exitDx=0;exitDy=0;entryX=0.5;entryY=0;entryDx=0;entryDy=0;align=left;" edge="1" parent="WIyWlLk6GJQsqaUBKTNV-1" source="au-9TqecU8oirwRdrZ1P-57" target="au-9TqecU8oirwRdrZ1P-61">
          <mxGeometry relative="1" as="geometry">
            <mxPoint as="offset" />
          </mxGeometry>
        </mxCell>
        <mxCell id="au-9TqecU8oirwRdrZ1P-57" value="Use A-star algorithm to plan a geometric path from new start point to destination" style="rounded=0;whiteSpace=wrap;html=1;" vertex="1" parent="WIyWlLk6GJQsqaUBKTNV-1">
          <mxGeometry x="-2830" y="652" width="120" height="60" as="geometry" />
        </mxCell>
        <mxCell id="au-9TqecU8oirwRdrZ1P-86" style="edgeStyle=orthogonalEdgeStyle;rounded=0;orthogonalLoop=1;jettySize=auto;html=1;exitX=0.5;exitY=1;exitDx=0;exitDy=0;entryX=0.5;entryY=0;entryDx=0;entryDy=0;" edge="1" parent="WIyWlLk6GJQsqaUBKTNV-1" source="au-9TqecU8oirwRdrZ1P-61" target="au-9TqecU8oirwRdrZ1P-84">
          <mxGeometry relative="1" as="geometry" />
        </mxCell>
        <mxCell id="au-9TqecU8oirwRdrZ1P-61" value="Initialize MPC solver with geometric waypoints and a velocity ramp at start" style="rounded=0;whiteSpace=wrap;html=1;" vertex="1" parent="WIyWlLk6GJQsqaUBKTNV-1">
          <mxGeometry x="-2830" y="752" width="120" height="60" as="geometry" />
        </mxCell>
        <mxCell id="au-9TqecU8oirwRdrZ1P-63" value="y" style="endArrow=classic;html=1;rounded=0;" edge="1" parent="WIyWlLk6GJQsqaUBKTNV-1">
          <mxGeometry x="0.4655" y="10" width="50" height="50" relative="1" as="geometry">
            <mxPoint x="-2600" y="806.6199999999999" as="sourcePoint" />
            <mxPoint x="-2600" y="727.31" as="targetPoint" />
            <mxPoint as="offset" />
          </mxGeometry>
        </mxCell>
        <mxCell id="au-9TqecU8oirwRdrZ1P-64" value="x" style="endArrow=classic;html=1;rounded=0;" edge="1" parent="WIyWlLk6GJQsqaUBKTNV-1">
          <mxGeometry x="0.5" y="-11" width="50" height="50" relative="1" as="geometry">
            <mxPoint x="-2600" y="806.6199999999999" as="sourcePoint" />
            <mxPoint x="-2520" y="806.31" as="targetPoint" />
            <mxPoint as="offset" />
          </mxGeometry>
        </mxCell>
        <mxCell id="au-9TqecU8oirwRdrZ1P-70" style="rounded=0;orthogonalLoop=1;jettySize=auto;html=1;exitX=1;exitY=0;exitDx=0;exitDy=0;entryX=0;entryY=1;entryDx=0;entryDy=0;endArrow=none;endFill=0;" edge="1" parent="WIyWlLk6GJQsqaUBKTNV-1" source="au-9TqecU8oirwRdrZ1P-65" target="au-9TqecU8oirwRdrZ1P-66">
          <mxGeometry relative="1" as="geometry" />
        </mxCell>
        <mxCell id="au-9TqecU8oirwRdrZ1P-65" value="" style="ellipse;whiteSpace=wrap;html=1;aspect=fixed;fillColor=#ffffff;" vertex="1" parent="WIyWlLk6GJQsqaUBKTNV-1">
          <mxGeometry x="-2570" y="774.31" width="10" height="10" as="geometry" />
        </mxCell>
        <mxCell id="au-9TqecU8oirwRdrZ1P-71" style="rounded=0;orthogonalLoop=1;jettySize=auto;html=1;exitX=0.5;exitY=0;exitDx=0;exitDy=0;entryX=0.5;entryY=1;entryDx=0;entryDy=0;endArrow=none;endFill=0;" edge="1" parent="WIyWlLk6GJQsqaUBKTNV-1" source="au-9TqecU8oirwRdrZ1P-66" target="au-9TqecU8oirwRdrZ1P-67">
          <mxGeometry relative="1" as="geometry" />
        </mxCell>
        <mxCell id="au-9TqecU8oirwRdrZ1P-66" value="" style="ellipse;whiteSpace=wrap;html=1;aspect=fixed;fillColor=#ffffff;" vertex="1" parent="WIyWlLk6GJQsqaUBKTNV-1">
          <mxGeometry x="-2540" y="757.31" width="10" height="10" as="geometry" />
        </mxCell>
        <mxCell id="au-9TqecU8oirwRdrZ1P-72" style="rounded=0;orthogonalLoop=1;jettySize=auto;html=1;exitX=1;exitY=0;exitDx=0;exitDy=0;entryX=0;entryY=1;entryDx=0;entryDy=0;endArrow=none;endFill=0;" edge="1" parent="WIyWlLk6GJQsqaUBKTNV-1" source="au-9TqecU8oirwRdrZ1P-67" target="au-9TqecU8oirwRdrZ1P-69">
          <mxGeometry relative="1" as="geometry" />
        </mxCell>
        <mxCell id="au-9TqecU8oirwRdrZ1P-67" value="" style="ellipse;whiteSpace=wrap;html=1;aspect=fixed;fillColor=#ffffff;" vertex="1" parent="WIyWlLk6GJQsqaUBKTNV-1">
          <mxGeometry x="-2540" y="727.31" width="10" height="10" as="geometry" />
        </mxCell>
        <mxCell id="au-9TqecU8oirwRdrZ1P-69" value="" style="ellipse;whiteSpace=wrap;html=1;aspect=fixed;fillColor=#ffffff;" vertex="1" parent="WIyWlLk6GJQsqaUBKTNV-1">
          <mxGeometry x="-2510" y="707.31" width="10" height="10" as="geometry" />
        </mxCell>
        <mxCell id="au-9TqecU8oirwRdrZ1P-73" value="v" style="endArrow=classic;html=1;rounded=0;" edge="1" parent="WIyWlLk6GJQsqaUBKTNV-1">
          <mxGeometry x="0.4655" y="10" width="50" height="50" relative="1" as="geometry">
            <mxPoint x="-2435" y="806.6199999999999" as="sourcePoint" />
            <mxPoint x="-2435" y="727.31" as="targetPoint" />
            <mxPoint as="offset" />
          </mxGeometry>
        </mxCell>
        <mxCell id="au-9TqecU8oirwRdrZ1P-74" value="t" style="endArrow=classic;html=1;rounded=0;" edge="1" parent="WIyWlLk6GJQsqaUBKTNV-1">
          <mxGeometry x="0.5" y="-11" width="50" height="50" relative="1" as="geometry">
            <mxPoint x="-2440" y="807.31" as="sourcePoint" />
            <mxPoint x="-2305" y="808" as="targetPoint" />
            <mxPoint as="offset" />
          </mxGeometry>
        </mxCell>
        <mxCell id="au-9TqecU8oirwRdrZ1P-80" style="rounded=0;orthogonalLoop=1;jettySize=auto;html=1;exitX=1;exitY=0;exitDx=0;exitDy=0;entryX=0;entryY=1;entryDx=0;entryDy=0;endArrow=none;endFill=0;" edge="1" parent="WIyWlLk6GJQsqaUBKTNV-1" source="au-9TqecU8oirwRdrZ1P-75" target="au-9TqecU8oirwRdrZ1P-76">
          <mxGeometry relative="1" as="geometry" />
        </mxCell>
        <mxCell id="au-9TqecU8oirwRdrZ1P-75" value="" style="ellipse;whiteSpace=wrap;html=1;aspect=fixed;fillColor=#ffffff;" vertex="1" parent="WIyWlLk6GJQsqaUBKTNV-1">
          <mxGeometry x="-2440" y="802" width="10" height="10" as="geometry" />
        </mxCell>
        <mxCell id="au-9TqecU8oirwRdrZ1P-81" style="rounded=0;orthogonalLoop=1;jettySize=auto;html=1;exitX=1;exitY=0;exitDx=0;exitDy=0;entryX=0;entryY=1;entryDx=0;entryDy=0;endArrow=none;endFill=0;" edge="1" parent="WIyWlLk6GJQsqaUBKTNV-1" source="au-9TqecU8oirwRdrZ1P-76" target="au-9TqecU8oirwRdrZ1P-77">
          <mxGeometry relative="1" as="geometry" />
        </mxCell>
        <mxCell id="au-9TqecU8oirwRdrZ1P-76" value="" style="ellipse;whiteSpace=wrap;html=1;aspect=fixed;fillColor=#ffffff;" vertex="1" parent="WIyWlLk6GJQsqaUBKTNV-1">
          <mxGeometry x="-2415" y="772" width="10" height="10" as="geometry" />
        </mxCell>
        <mxCell id="au-9TqecU8oirwRdrZ1P-82" style="rounded=0;orthogonalLoop=1;jettySize=auto;html=1;exitX=1;exitY=0;exitDx=0;exitDy=0;entryX=0;entryY=0.5;entryDx=0;entryDy=0;endArrow=none;endFill=0;" edge="1" parent="WIyWlLk6GJQsqaUBKTNV-1" source="au-9TqecU8oirwRdrZ1P-77" target="au-9TqecU8oirwRdrZ1P-78">
          <mxGeometry relative="1" as="geometry" />
        </mxCell>
        <mxCell id="au-9TqecU8oirwRdrZ1P-77" value="" style="ellipse;whiteSpace=wrap;html=1;aspect=fixed;fillColor=#ffffff;" vertex="1" parent="WIyWlLk6GJQsqaUBKTNV-1">
          <mxGeometry x="-2391" y="747" width="10" height="10" as="geometry" />
        </mxCell>
        <mxCell id="au-9TqecU8oirwRdrZ1P-83" style="rounded=0;orthogonalLoop=1;jettySize=auto;html=1;exitX=1;exitY=0.5;exitDx=0;exitDy=0;entryX=0;entryY=0.5;entryDx=0;entryDy=0;endArrow=none;endFill=0;" edge="1" parent="WIyWlLk6GJQsqaUBKTNV-1" source="au-9TqecU8oirwRdrZ1P-78" target="au-9TqecU8oirwRdrZ1P-79">
          <mxGeometry relative="1" as="geometry" />
        </mxCell>
        <mxCell id="au-9TqecU8oirwRdrZ1P-78" value="" style="ellipse;whiteSpace=wrap;html=1;aspect=fixed;fillColor=#ffffff;" vertex="1" parent="WIyWlLk6GJQsqaUBKTNV-1">
          <mxGeometry x="-2355" y="739" width="10" height="10" as="geometry" />
        </mxCell>
        <mxCell id="au-9TqecU8oirwRdrZ1P-79" value="" style="ellipse;whiteSpace=wrap;html=1;aspect=fixed;fillColor=#ffffff;" vertex="1" parent="WIyWlLk6GJQsqaUBKTNV-1">
          <mxGeometry x="-2320" y="739" width="10" height="10" as="geometry" />
        </mxCell>
        <mxCell id="au-9TqecU8oirwRdrZ1P-87" value="Solver failed" style="edgeStyle=orthogonalEdgeStyle;rounded=0;orthogonalLoop=1;jettySize=auto;html=1;exitX=1;exitY=0.25;exitDx=0;exitDy=0;entryX=0.5;entryY=1;entryDx=0;entryDy=0;align=left;" edge="1" parent="WIyWlLk6GJQsqaUBKTNV-1" source="au-9TqecU8oirwRdrZ1P-84" target="au-9TqecU8oirwRdrZ1P-40">
          <mxGeometry x="-0.9807" y="-13" relative="1" as="geometry">
            <mxPoint as="offset" />
          </mxGeometry>
        </mxCell>
        <mxCell id="au-9TqecU8oirwRdrZ1P-89" value="&lt;div&gt;Solver succeeded&lt;br&gt;&lt;/div&gt;" style="edgeStyle=orthogonalEdgeStyle;rounded=0;orthogonalLoop=1;jettySize=auto;html=1;exitX=1;exitY=0.75;exitDx=0;exitDy=0;entryX=0;entryY=0.5;entryDx=0;entryDy=0;align=left;" edge="1" parent="WIyWlLk6GJQsqaUBKTNV-1" source="au-9TqecU8oirwRdrZ1P-84" target="au-9TqecU8oirwRdrZ1P-88">
          <mxGeometry x="-0.8653" y="-15" relative="1" as="geometry">
            <mxPoint as="offset" />
          </mxGeometry>
        </mxCell>
        <mxCell id="au-9TqecU8oirwRdrZ1P-84" value="Solve using MPC by concatenating problems of duration 2.0 seconds until objective is reached or problem is too long compared to init" style="rounded=0;whiteSpace=wrap;html=1;" vertex="1" parent="WIyWlLk6GJQsqaUBKTNV-1">
          <mxGeometry x="-2830" y="842" width="120" height="110" as="geometry" />
        </mxCell>
        <mxCell id="au-9TqecU8oirwRdrZ1P-91" style="edgeStyle=orthogonalEdgeStyle;rounded=0;orthogonalLoop=1;jettySize=auto;html=1;exitX=1;exitY=0.5;exitDx=0;exitDy=0;entryX=0.625;entryY=1;entryDx=0;entryDy=0;" edge="1" parent="WIyWlLk6GJQsqaUBKTNV-1" source="au-9TqecU8oirwRdrZ1P-88" target="au-9TqecU8oirwRdrZ1P-32">
          <mxGeometry relative="1" as="geometry">
            <Array as="points">
              <mxPoint x="-2120" y="924" />
              <mxPoint x="-2120" y="230" />
              <mxPoint x="-2318" y="230" />
            </Array>
          </mxGeometry>
        </mxCell>
        <mxCell id="au-9TqecU8oirwRdrZ1P-88" value="&lt;div&gt;avoidanceComputationResult_&amp;nbsp; set to the solved trajectory, and add a PointTurn at the end to ensure the correct end angle&lt;br&gt;&lt;/div&gt;" style="rounded=0;whiteSpace=wrap;html=1;" vertex="1" parent="WIyWlLk6GJQsqaUBKTNV-1">
          <mxGeometry x="-2562" y="890" width="181" height="70" as="geometry" />
        </mxCell>
        <mxCell id="au-9TqecU8oirwRdrZ1P-92" value="&lt;div&gt;Initialization from geometric waypoints give an overhead to the MPC&lt;/div&gt;&lt;div&gt;solver using a lower nominal velocity.&lt;br&gt;&lt;/div&gt;&lt;div&gt;&lt;br&gt;&lt;/div&gt;&lt;div&gt;Solve trajectory from waypoints by blocks of 20 intervals of &lt;br&gt;&lt;/div&gt;&lt;div&gt;0.1 seconds (2 seconds by iteration in total). &lt;br&gt;&lt;/div&gt;&lt;div&gt;&lt;br&gt;&lt;/div&gt;&lt;div&gt;Discard the last 2 points every time to smooth the trajectory at the &lt;br&gt;&lt;/div&gt;&lt;div&gt;transitions from one iteration to the other. The next iteration starts &lt;br&gt;&lt;/div&gt;&lt;div&gt;at t=1.8s in the previous iteration.&lt;br&gt;&lt;/div&gt;&lt;div&gt;&lt;br&gt;&lt;/div&gt;&lt;div&gt;Since the velocity at the end point is not set to zero, the trajectory &lt;br&gt;&lt;/div&gt;&lt;div&gt;can overshoot. Also the trajectory ends only approximately at the &lt;br&gt;&lt;/div&gt;&lt;div&gt;right end point, depending on the results of the optimization. Can&lt;/div&gt;&lt;div&gt;be highly improved.&lt;br&gt;&lt;/div&gt;" style="text;html=1;align=left;verticalAlign=middle;resizable=0;points=[];autosize=1;strokeColor=none;fillColor=none;" vertex="1" parent="WIyWlLk6GJQsqaUBKTNV-1">
          <mxGeometry x="-2080" y="697" width="380" height="220" as="geometry" />
        </mxCell>
        <mxCell id="au-9TqecU8oirwRdrZ1P-93" value="There is a velocity ramp at the start but no decreasing velocity ramp at the end" style="text;html=1;align=center;verticalAlign=middle;resizable=0;points=[];autosize=1;strokeColor=none;fillColor=none;" vertex="1" parent="WIyWlLk6GJQsqaUBKTNV-1">
          <mxGeometry x="-2680" y="827" width="440" height="30" as="geometry" />
        </mxCell>
      </root>
    </mxGraphModel>
  </diagram>
</mxfile>
